<?xml version="1.0"?><svg width="2000" height="2000" xmlns="http://www.w3.org/2000/svg">
 <title>ring</title>
 <metadata id="metadata4807">image/svg+xmldiamant / diamond2011-02-05lmproulx</metadata>
 <g>
  <title>Layer 1</title>
  <path fill="#ffffff" stroke="#000000" stroke-width="14" stroke-linecap="round" stroke-linejoin="round" stroke-miterlimit="4" stroke-dashoffset="3.003" d="m826.258606,362.845215l80.025452,185.126587l102.254761,-219.568634" id="path4662"/>
  <path fill="#ffffff" stroke="#000000" stroke-width="14" stroke-linecap="round" stroke-linejoin="round" stroke-miterlimit="4" stroke-dashoffset="3.003" id="path4670" d="m538.429993,564.794006c61.475037,60.794006 438.997009,373.187988 438.997009,373.187988l-185.976013,-378.789001l-253.020996,5.601013z"/>
  <path fill="#ffffff" stroke="#000000" stroke-width="14" stroke-linecap="round" stroke-linejoin="round" stroke-miterlimit="4" stroke-dashoffset="3.003" id="path4672" d="m979.798828,935.377869l76.303955,-403.860413l-279.318237,29.477844l203.014282,374.382568z"/>
  <path fill="#ffffff" stroke="#000000" stroke-width="14" stroke-linecap="round" stroke-linejoin="round" stroke-miterlimit="4" stroke-dashoffset="3.003" id="path4674" d="m536.932007,559.690002l158.859009,-185l142.078979,-31.949005l-57.950012,213.586029l-242.987976,3.362976z"/>
  <path fill="#ffffff" stroke="#000000" stroke-width="14" stroke-linecap="round" stroke-linejoin="round" stroke-miterlimit="4" stroke-dashoffset="3.003" id="path4676" d="m1012.782837,320.138397l148.420898,-11.384735l156.635376,148.378021l-254.492188,67.318451l-50.564087,-204.311737z"/>
  <path fill="#ffffff" stroke="#000000" stroke-width="14" stroke-linecap="round" stroke-linejoin="round" stroke-miterlimit="4" stroke-dashoffset="3.003" id="path4678" d="m835.739868,344.756958l172.097107,-21.503998l49.265808,208.264496l-276.872681,29.177734l55.509766,-215.938232z"/>
  <path fill="#ffffff" stroke="#000000" stroke-width="14" stroke-linecap="round" stroke-linejoin="round" stroke-miterlimit="4" stroke-dashoffset="3.003" id="path4680" d="m979.798828,935.377869l330.485962,-473.54657l-254.182007,69.686157l-76.303955,403.860413l0,0z"/>
  <path fill="#ffffff" stroke="#000000" stroke-width="14" stroke-linecap="round" stroke-linejoin="round" stroke-miterlimit="4" stroke-dashoffset="3.003" id="path4682" d="m838.27948,29.016291l32.157471,226.909826"/>
  <path fill="#ffffff" stroke="#000000" stroke-width="14" stroke-linecap="round" stroke-linejoin="round" stroke-miterlimit="4" stroke-dashoffset="3.003" id="path4684" d="m1087.865723,237.363159l80.249023,-156.094559"/>
  <path fill="#ffffff" stroke="#000000" stroke-width="14" stroke-linecap="round" stroke-linejoin="round" stroke-miterlimit="4" stroke-dashoffset="3.003" id="path4686" d="m1283.104492,396.025513l127.725342,-98.318207"/>
  <path fill="#ffffff" id="path4688" d="m1240.455566,665.00531l152.130493,61.588318" stroke-width="14"/>
  <path fill="#ffffff" stroke="#000000" stroke-width="14" stroke-linecap="round" stroke-linejoin="round" stroke-miterlimit="4" stroke-dashoffset="3.003" id="path4694" d="m540.287842,174.725296l83.948669,136.348984"/>
  <path fill="#ffffff" stroke="#000000" stroke-linecap="round" stroke-linejoin="round" stroke-miterlimit="4" stroke-dashoffset="3.003" id="path4696" d="m834.568359,344.739746l71.715698,203.232056l102.254761,-219.56897" stroke-width="14"/>
  <path fill="#ffffff" stroke="#000000" stroke-linecap="round" stroke-linejoin="round" stroke-miterlimit="4" stroke-dashoffset="3.003" d="m1188.849365,495.58609l-201.350464,429.595062" id="path4708" stroke-width="14"/>
  <path fill="#ffffff" stroke="#000000" stroke-linecap="round" stroke-linejoin="round" stroke-miterlimit="4" stroke-dashoffset="3.003" d="m908.532227,545.617615l73.090881,379.563538l-14.185303,-9.36853" id="path4710" stroke-width="14"/>
  <path fill="#ffffff" stroke="#000000" stroke-linecap="round" stroke-linejoin="round" stroke-miterlimit="4" stroke-dashoffset="3.003" d="m649.640564,561.021057l321.091553,364.850281" id="path4712" stroke-width="14"/>
  <path fill="#ffffff" stroke="#000000" stroke-width="14" stroke-linecap="round" stroke-miterlimit="4" d="m618.409668,746.753723l-97.638123,102.597473" id="path4727"/>
  <path fill="#ffffff" stroke="#000000" stroke-width="14" stroke-linecap="round" stroke-linejoin="round" stroke-miterlimit="4" stroke-dashoffset="3.003" d="m1284.531006,676.961182l82.26123,71.125244" id="path4741"/>
  <ellipse transform="rotate(-6.29393 1002.88 1289.85)" ry="484.288257" rx="561.548083" id="svg_1" cy="1289.854405" cx="1002.880867" stroke-width="14" stroke="#000000" fill="#ffffff"/>
  <ellipse transform="rotate(-8.09942 999.381 1303.42)" ry="418.613288" rx="465.493802" id="svg_3" cy="1303.424326" cx="999.380972" stroke-width="14" stroke="#000000" fill="#ffffff"/>
  <path fill="#ffffff" stroke="#000000" stroke-width="14" stroke-linecap="round" stroke-linejoin="round" stroke-miterlimit="4" stroke-dashoffset="3.003" d="m829.921143,348.150543l-157.759216,208.507355l29.612854,-176.591614" id="path4664"/>
  <path fill="#ffffff" stroke="#000000" stroke-width="14" stroke-linecap="round" stroke-linejoin="round" stroke-miterlimit="4" stroke-dashoffset="3.003" d="m1012.984802,337.013702l177.444153,159.295013l-35.410889,-179.360992" id="path4666"/>
 </g>
</svg>